<svg width="24" height="25" viewBox="0 0 24 25" fill="none" xmlns="http://www.w3.org/2000/svg">
<path fill-rule="evenodd" clip-rule="evenodd" d="M19.5 5.5C20.8807 5.5 22 6.61929 22 8V17C22 18.3807 20.8807 19.5 19.5 19.5H4.5C3.11929 19.5 2 18.3807 2 17V8C2 6.61929 3.11929 5.5 4.5 5.5H19.5ZM3.00687 7.85554L3 8V17C3 17.7797 3.59489 18.4204 4.35554 18.4931L4.5 18.5H19.5C20.2797 18.5 20.9204 17.9051 20.9931 17.1445L21 17V8C21 7.66236 20.8884 7.35078 20.7002 7.1001L13.5 12.5C12.6634 13.1275 11.5315 13.1644 10.6602 12.6107L10.5 12.5L3.3 7.1L3.30804 7.08926C3.1423 7.30584 3.03425 7.56892 3.00687 7.85554ZM19.5 6.5H4.5C4.39967 6.5 4.30164 6.50985 4.20683 6.52864L11.1 11.7C11.5923 12.0692 12.255 12.0976 12.7736 11.7852L12.9 11.7L19.7932 6.52864C19.7444 6.51897 19.6948 6.51168 19.6445 6.50687L19.5 6.5Z" fill="#566170"/>
</svg>
