<svg width="41" height="41" viewBox="0 0 41 41" fill="none" xmlns="http://www.w3.org/2000/svg">
<path opacity="0.4" d="M40.905 20.4958C40.905 31.5392 31.9507 40.4916 20.905 40.4916C9.85933 40.4916 0.905029 31.5392 0.905029 20.4958C0.905029 9.45243 9.85933 0.5 20.905 0.5C31.9507 0.5 40.905 9.45243 40.905 20.4958ZM5.90503 20.4958C5.90503 28.7784 12.6208 35.4927 20.905 35.4927C29.1893 35.4927 35.905 28.7784 35.905 20.4958C35.905 12.2133 29.1893 5.49895 20.905 5.49895C12.6208 5.49895 5.90503 12.2133 5.90503 20.4958Z" fill="#CAD5E4"/>
<path d="M19.6123 3.04736C19.5103 1.67068 20.5468 0.455605 21.9254 0.526017C25.3575 0.701305 28.7018 1.75903 31.6265 3.61594C34.5509 5.47264 36.9304 8.04867 38.5486 11.0793C39.1989 12.2974 38.5398 13.7526 37.25 14.2458C35.9605 14.7389 34.5326 14.0786 33.8322 12.889C32.6328 10.8516 30.9621 9.11585 28.9462 7.83591C26.93 6.55585 24.648 5.78216 22.2934 5.56331C20.9189 5.43557 19.7143 4.42398 19.6123 3.04736Z" fill="#0DB4A7"/>
<path d="M10.8922 23.9974V23.0457L13.417 20.5705C13.6585 20.3267 13.8597 20.1101 14.0207 19.9207C14.1817 19.7313 14.3024 19.5478 14.3829 19.3702C14.4634 19.1927 14.5037 19.0033 14.5037 18.8021C14.5037 18.5724 14.4516 18.3759 14.3474 18.2126C14.2432 18.0469 14.1 17.919 13.9177 17.8291C13.7354 17.7391 13.5283 17.6941 13.2963 17.6941C13.0572 17.6941 12.8476 17.7438 12.6677 17.8433C12.4878 17.9403 12.3481 18.0788 12.2487 18.2587C12.1516 18.4387 12.1031 18.6529 12.1031 18.9015H10.8495C10.8495 18.4398 10.9549 18.0386 11.1656 17.6977C11.3763 17.3568 11.6663 17.0928 12.0356 16.9058C12.4073 16.7187 12.8334 16.6252 13.314 16.6252C13.8017 16.6252 14.2302 16.7164 14.5995 16.8987C14.9689 17.0809 15.2553 17.3307 15.4589 17.6479C15.6649 17.9652 15.7679 18.3274 15.7679 18.7346C15.7679 19.0068 15.7158 19.2744 15.6116 19.5371C15.5075 19.7999 15.324 20.0911 15.0612 20.4107C14.8008 20.7303 14.435 21.1174 13.9639 21.5719L12.7103 22.8468V22.8965H15.878V23.9974H10.8922ZM19.7913 24.1359C19.2066 24.1359 18.7047 23.9879 18.2856 23.692C17.869 23.3937 17.5482 22.964 17.3233 22.4029C17.1007 21.8395 16.9895 21.1612 16.9895 20.3681C16.9918 19.575 17.1043 18.9003 17.3268 18.344C17.5517 17.7853 17.8725 17.3591 18.2892 17.0656C18.7082 16.772 19.2089 16.6252 19.7913 16.6252C20.3737 16.6252 20.8744 16.772 21.2934 17.0656C21.7125 17.3591 22.0333 17.7853 22.2558 18.344C22.4807 18.9027 22.5932 19.5774 22.5932 20.3681C22.5932 21.1636 22.4807 21.843 22.2558 22.4065C22.0333 22.9675 21.7125 23.396 21.2934 23.692C20.8768 23.9879 20.3761 24.1359 19.7913 24.1359ZM19.7913 23.0244C20.2458 23.0244 20.6045 22.8006 20.8673 22.3532C21.1325 21.9034 21.265 21.2417 21.265 20.3681C21.265 19.7905 21.2047 19.3051 21.0839 18.9121C20.9632 18.5192 20.7927 18.2232 20.5726 18.0244C20.3524 17.8231 20.092 17.7225 19.7913 17.7225C19.3391 17.7225 18.9816 17.9474 18.7189 18.3972C18.4561 18.8447 18.3235 19.5016 18.3211 20.3681C18.3188 20.9481 18.3768 21.4358 18.4951 21.8312C18.6159 22.2265 18.7863 22.5248 19.0065 22.7261C19.2267 22.9249 19.4883 23.0244 19.7913 23.0244ZM27.6615 22.6337V22.2502C27.6615 21.9685 27.7207 21.7093 27.8391 21.4725C27.9598 21.2358 28.135 21.0452 28.3646 20.9008C28.5943 20.7564 28.8724 20.6842 29.1992 20.6842C29.5353 20.6842 29.8171 20.7564 30.0443 20.9008C30.2716 21.0428 30.4432 21.2322 30.5592 21.469C30.6776 21.7057 30.7368 21.9661 30.7368 22.2502V22.6337C30.7368 22.9155 30.6776 23.1747 30.5592 23.4114C30.4409 23.6482 30.2669 23.8388 30.0372 23.9832C29.8099 24.1276 29.5306 24.1998 29.1992 24.1998C28.8677 24.1998 28.5872 24.1276 28.3575 23.9832C28.1279 23.8388 27.9539 23.6482 27.8355 23.4114C27.7195 23.1747 27.6615 22.9155 27.6615 22.6337ZM28.5884 22.2502V22.6337C28.5884 22.8208 28.6333 22.9924 28.7233 23.1487C28.8133 23.3049 28.9719 23.383 29.1992 23.383C29.4288 23.383 29.5862 23.3061 29.6715 23.1522C29.759 22.996 29.8028 22.8231 29.8028 22.6337V22.2502C29.8028 22.0608 29.7614 21.888 29.6786 21.7318C29.5957 21.5731 29.4359 21.4938 29.1992 21.4938C28.9766 21.4938 28.8192 21.5731 28.7269 21.7318C28.6345 21.888 28.5884 22.0608 28.5884 22.2502ZM23.9648 18.4718V18.0883C23.9648 17.8042 24.0251 17.5438 24.1459 17.307C24.2666 17.0703 24.4418 16.8809 24.6715 16.7389C24.9011 16.5944 25.1793 16.5222 25.506 16.5222C25.8398 16.5222 26.1203 16.5944 26.3476 16.7389C26.5772 16.8809 26.7501 17.0703 26.8661 17.307C26.9821 17.5438 27.0401 17.8042 27.0401 18.0883V18.4718C27.0401 18.7559 26.9809 19.0163 26.8625 19.2531C26.7465 19.4874 26.5737 19.6756 26.344 19.8177C26.1144 19.9597 25.835 20.0308 25.506 20.0308C25.1722 20.0308 24.8904 19.9597 24.6608 19.8177C24.4335 19.6756 24.2607 19.4862 24.1423 19.2495C24.024 19.0128 23.9648 18.7535 23.9648 18.4718ZM24.8987 18.0883V18.4718C24.8987 18.6612 24.9425 18.834 25.0301 18.9903C25.1201 19.1442 25.2787 19.2211 25.506 19.2211C25.7332 19.2211 25.8895 19.1442 25.9747 18.9903C26.0623 18.834 26.1061 18.6612 26.1061 18.4718V18.0883C26.1061 17.8989 26.0647 17.7261 25.9818 17.5698C25.899 17.4112 25.7403 17.3319 25.506 17.3319C25.2811 17.3319 25.1236 17.4112 25.0337 17.5698C24.9437 17.7284 24.8987 17.9013 24.8987 18.0883ZM24.3696 23.9974L29.3696 16.7246H30.2574L25.2574 23.9974H24.3696Z" fill="#1B2C74"/>
</svg>
