<svg width="20" height="21" viewBox="0 0 20 21" fill="none" xmlns="http://www.w3.org/2000/svg">
<g clip-path="url(#clip0_261_6552)">
<path d="M20.0011 4.87526C19.9439 4.90892 19.9502 4.97584 19.9228 5.02555C19.7619 5.32574 19.5189 5.49795 19.1741 5.49873C18.0553 5.50108 16.9366 5.50108 15.818 5.49873C15.7103 5.49899 15.6036 5.47787 15.5041 5.43658C15.4046 5.39529 15.3143 5.33466 15.2384 5.2582C15.1626 5.18175 15.1026 5.09099 15.0621 4.99119C15.0216 4.89139 15.0013 4.78454 15.0023 4.67683C14.9992 3.55826 14.9992 2.43956 15.0023 1.32073C15.0016 1.21315 15.0223 1.1065 15.0631 1.00696C15.1038 0.90742 15.164 0.816966 15.24 0.740842C15.316 0.664719 15.4064 0.604441 15.5059 0.563501C15.6054 0.522562 15.712 0.501776 15.8196 0.502348C16.9373 0.499217 18.056 0.499217 19.1757 0.502348C19.5279 0.502348 19.7749 0.680818 19.9318 0.993141C19.9541 1.03737 19.9459 1.09881 20.0015 1.12543L20.0011 4.87526Z" fill="#1B2C74"/>
<path d="M20.0011 12.3752C19.9439 12.4088 19.9502 12.4757 19.9228 12.5255C19.7619 12.8256 19.5189 12.9975 19.1741 12.9982C18.0553 13.0011 16.9366 13.0011 15.818 12.9982C15.7103 12.9985 15.6036 12.9773 15.5042 12.936C15.4047 12.8947 15.3144 12.834 15.2386 12.7576C15.1627 12.6812 15.1027 12.5904 15.0622 12.4906C15.0217 12.3909 15.0013 12.284 15.0023 12.1763C14.9992 11.0578 14.9992 9.9392 15.0023 8.82063C15.0014 8.71304 15.0219 8.60634 15.0625 8.50672C15.1031 8.40709 15.1631 8.31653 15.2391 8.24029C15.315 8.16404 15.4053 8.10364 15.5047 8.06258C15.6042 8.02151 15.7108 8.00061 15.8184 8.00108C16.9369 7.99769 18.0556 7.99769 19.1745 8.00108C19.5267 8.00108 19.7737 8.17955 19.9306 8.49148C19.9529 8.53571 19.9447 8.59754 20.0003 8.62416L20.0011 12.3752Z" fill="#1B2C74"/>
<path d="M0.625428 20.4998C0.598814 20.4446 0.537367 20.4524 0.49275 20.4301C0.179644 20.2736 0.00352244 20.0266 0.00234829 19.6736C-0.000782763 18.555 -0.000782763 17.4365 0.00234829 16.3179C0.00192655 16.2101 0.022941 16.1033 0.0641692 16.0038C0.105397 15.9042 0.166016 15.8138 0.242499 15.7378C0.318982 15.6619 0.409801 15.6019 0.509674 15.5614C0.609547 15.5209 0.716479 15.5007 0.82425 15.5019C1.94282 15.4987 3.06139 15.4987 4.17996 15.5019C4.28768 15.5007 4.39456 15.521 4.49438 15.5615C4.5942 15.602 4.68498 15.6619 4.76145 15.7378C4.83792 15.8137 4.89855 15.904 4.93982 16.0035C4.98109 16.1031 5.00218 16.2098 5.00186 16.3175C5.00577 17.4361 5.00577 18.5548 5.00186 19.6736C5.00186 20.0258 4.823 20.2728 4.51146 20.4301C4.46723 20.4524 4.40539 20.4442 4.37878 20.4998H0.625428Z" fill="#1B2C74"/>
<path d="M8.12549 20.4996C8.09848 20.4444 8.03704 20.4523 7.99281 20.43C7.67971 20.2734 7.50358 20.0264 7.50241 19.6734C7.49928 18.5548 7.49928 17.4363 7.50241 16.3177C7.50194 16.2101 7.52284 16.1035 7.56391 16.0041C7.60497 15.9046 7.66538 15.8143 7.74162 15.7384C7.81786 15.6625 7.90842 15.6025 8.00805 15.5618C8.10767 15.5212 8.21437 15.5007 8.32196 15.5017C9.44079 15.4985 10.5595 15.4985 11.6781 15.5017C11.7858 15.5006 11.8926 15.5209 11.9924 15.5614C12.0922 15.6019 12.183 15.6619 12.2594 15.7378C12.3359 15.8136 12.3965 15.9039 12.4378 16.0034C12.4791 16.1029 12.5002 16.2096 12.5 16.3173C12.5036 17.4359 12.5036 18.5546 12.5 19.6734C12.5 20.0257 12.3211 20.2726 12.0092 20.43C11.9649 20.4523 11.9035 20.444 11.8769 20.4996H8.12549Z" fill="#1B2C74"/>
<path d="M15.6248 20.4996C15.5912 20.4429 15.5243 20.4487 15.4746 20.4213C15.1748 20.2605 15.0025 20.0182 15.0018 19.673C14.9994 18.5547 14.9994 17.4365 15.0018 16.3185C15.0012 16.2109 15.022 16.1043 15.0629 16.0048C15.1038 15.9054 15.164 15.815 15.2401 15.7389C15.3162 15.6629 15.4066 15.6027 15.5061 15.5618C15.6056 15.521 15.7122 15.5003 15.8197 15.5009C16.9378 15.4978 18.056 15.4978 19.1743 15.5009C19.5265 15.5009 19.7731 15.6797 19.93 15.9917C19.9523 16.0359 19.9441 16.0973 19.9997 16.124V19.8742C19.9454 20.0168 19.8615 20.1464 19.7536 20.2543C19.6457 20.3622 19.5161 20.4461 19.3735 20.5004L15.6248 20.4996Z" fill="#00A9E0"/>
<path d="M2.48821 5.49951C1.94027 5.49951 1.39469 5.50147 0.847929 5.49951C0.354005 5.49716 0.00136984 5.14414 0.000978454 4.64865C-0.000326151 3.54886 -0.000326151 2.44882 0.000978454 1.34852C0.00176122 0.854592 0.35557 0.502348 0.850668 0.5C1.95097 0.5 3.05102 0.500652 4.1508 0.501957C4.64433 0.501957 4.99736 0.856549 4.99814 1.35165C5.00023 2.45143 5.00023 3.55147 4.99814 4.65178C4.99814 5.14492 4.64237 5.49755 4.14806 5.49912C3.59465 5.50108 3.04123 5.49951 2.48821 5.49951Z" fill="#1B2C74"/>
<path d="M7.50031 3.00484C7.50031 2.46474 7.50031 1.9245 7.50031 1.38413C7.50109 0.847938 7.84238 0.501957 8.37466 0.5C9.46191 0.5 10.549 0.5 11.636 0.5C12.1448 0.5 12.4971 0.84833 12.4998 1.35321C12.5014 2.45352 12.5014 3.55356 12.4998 4.65334C12.4998 5.14531 12.1429 5.49677 11.6466 5.49755C10.5463 5.49912 9.44626 5.49912 8.34648 5.49755C7.85412 5.49755 7.50422 5.14061 7.50266 4.64434C7.49874 4.10071 7.50031 3.55278 7.50031 3.00484Z" fill="#1B2C74"/>
<path d="M2.51815 8.00101C3.05826 8.00101 3.59876 8.00101 4.13886 8.00101C4.64766 8.00101 4.99677 8.35325 4.99755 8.85892C4.99912 9.95244 4.99912 11.0461 4.99755 12.1399C4.99755 12.6463 4.64531 12.9978 4.13925 12.9986C3.04573 13.0001 1.95221 13.0001 0.858692 12.9986C0.349895 12.9986 0.000782763 12.6463 0 12.1399C0 11.0464 0 9.95283 0 8.85931C0 8.35051 0.352244 8.00218 0.8583 8.00101C1.41132 7.99984 1.96474 8.00101 2.51815 8.00101Z" fill="#1B2C74"/>
<path d="M12.4987 10.5125C12.4987 11.0604 12.5007 11.606 12.4987 12.1528C12.4964 12.6459 12.1426 12.9985 11.6475 12.9993C10.5472 13.0009 9.44699 13.0009 8.34695 12.9993C7.85381 12.9993 7.50196 12.6439 7.50117 12.1481C7.49961 11.0483 7.49961 9.94823 7.50117 8.84793C7.50117 8.35439 7.85616 8.00293 8.35204 8.00215C9.45234 8.00059 10.5525 8.00059 11.6526 8.00215C12.1453 8.00215 12.4968 8.35713 12.4987 8.85301C12.5003 9.40604 12.4987 9.95945 12.4987 10.5125Z" fill="#1B2C74"/>
</g>
<defs>
<clipPath id="clip0_261_6552">
<rect width="20" height="20" fill="white" transform="translate(0 0.5)"/>
</clipPath>
</defs>
</svg>
