<svg width="15" height="14" viewBox="0 0 15 14" fill="none" xmlns="http://www.w3.org/2000/svg">
<path fill-rule="evenodd" clip-rule="evenodd" d="M7.5 0C9.49375 0.0438187 11.1479 0.722998 12.4624 2.03756C13.777 3.35212 14.4562 5.00625 14.5 7C14.4562 8.99375 13.777 10.6479 12.4624 11.9624C11.1479 13.277 9.49375 13.9562 7.5 14C5.50625 13.9562 3.85212 13.277 2.53756 11.9624C1.223 10.6479 0.543819 8.99375 0.5 7C0.543819 5.00625 1.223 3.35212 2.53756 2.03756C3.85212 0.722998 5.50625 0.0438187 7.5 0ZM7.5 1C5.79107 1.03756 4.37325 1.61971 3.24648 2.74648C2.11971 3.87325 1.53756 5.29107 1.5 7C1.53756 8.70893 2.11971 10.1268 3.24648 11.2535C4.37325 12.3803 5.79107 12.9624 7.5 13C9.20893 12.9624 10.6268 12.3803 11.7535 11.2535C12.8803 10.1268 13.4624 8.70893 13.5 7C13.4624 5.29107 12.8803 3.87325 11.7535 2.74648C10.6268 1.61971 9.20893 1.03756 7.5 1ZM10.2572 4.07133C10.4677 4.19762 10.5518 4.45432 10.4681 4.67611L10.4287 4.75732L7.42875 9.75732C7.27812 10.0084 6.95127 10.0718 6.71973 9.91436L6.64645 9.85363L4.64645 7.85363C4.45118 7.65837 4.45118 7.34178 4.64645 7.14652C4.82001 6.97296 5.08944 6.95367 5.28431 7.08867L5.35355 7.14652L6.9 8.69308L9.57125 4.24283C9.71333 4.00604 10.0205 3.92926 10.2572 4.07133Z" fill="#0DB4A7"/>
</svg>
